# xmcd
#
# Track frame offsets:
#	150
#	1122
#	16947
#	37562
#	39037
#	58582
#	77740
#	96672
#	99927
#
# Disc length: 1614 seconds
#
# Revision: 1
# Processed by: cddbd v1.5.1PL0 Copyright (c) Steve Scherf et al.
# Submitted via: CDex 1.50Beta5
#
DISCID=52064c09
DTITLE=Akiko - BACK HOME
DYEAR=1996
DGENRE=
TTITLE0=INTERLUDE
TTITLE1=YOUR MINE
TTITLE2=BACK HOME
TTITLE3=INTERLUDE
TTITLE4=TELL ME YOU’RE SORRY
TTITLE5=YOU WANT ME BACK
TTITLE6=KEEP ON
TTITLE7=101.9MIX
TTITLE8=YOU ARE THE ONE I NEED
EXTD=
EXTT0=
EXTT1=
EXTT2=
EXTT3=
EXTT4=
EXTT5=
EXTT6=
EXTT7=
EXTT8=
PLAYORDER=
